<svg width="210" height="36" viewBox="0 0 210 36" fill="none" xmlns="http://www.w3.org/2000/svg">
<path d="M18.5711 4.78893C17.5527 4.03107 16.2726 3.80624 15.0568 4.17088L6.83311 6.63794C5.13894 7.14651 4 8.67604 4 10.4455V28.0224C4 29.2916 4.58389 30.4539 5.60214 31.2105C6.62059 31.9685 7.90214 32.1932 9.11648 31.8286L15.2555 29.9864C15.0635 29.3533 14.9663 28.6926 14.9663 28.0224V20.0399C14.9663 18.3637 15.5776 16.7627 16.6905 15.5347C17.5073 14.63 18.567 13.9626 19.7512 13.6062L20.1733 13.4856V7.97838C20.1733 6.70915 19.5894 5.54688 18.571 4.78893H18.5711Z" fill="#6C5DD3"/>
<path d="M33.8804 17.5727V25.5552C33.8804 27.3233 32.7428 28.8543 31.0473 29.3614L22.8236 31.8286C22.4426 31.9437 22.0547 31.9999 21.671 31.9999C20.8307 31.9999 20.0083 31.7313 19.3093 31.2104C18.9899 30.972 18.7131 30.6965 18.4855 30.3881C18.2087 30.018 18.0017 29.6055 17.8715 29.1627C17.8701 29.1627 17.8688 29.1627 17.8674 29.164L17.8701 29.1613C17.7646 28.7981 17.707 28.4157 17.707 28.0223V20.0399C17.707 19.2202 17.951 18.4513 18.3815 17.8126C18.8118 17.1738 19.4285 16.664 20.1742 16.3611C20.2935 16.3131 20.4154 16.2691 20.5402 16.2323L21.5463 15.9307L28.764 13.7651C29.9797 13.4005 31.2599 13.6253 32.2783 14.3833C33.2967 15.1412 33.8805 16.3035 33.8805 17.5727H33.8804Z" fill="#6C5DD3"/>
<path d="M49.1749 26.336C50.9749 26.336 52.4389 25.88 53.5669 24.968C54.6949 24.056 55.2709 22.832 55.2709 21.272C55.2709 20.312 55.0069 19.472 54.6469 18.896C54.3349 18.32 53.5669 17.72 53.0629 17.408C52.8229 17.24 52.4629 17.072 52.0069 16.904C51.5509 16.712 51.1909 16.568 50.9269 16.496L49.7749 16.112C48.5269 15.728 47.6869 15.368 47.2309 15.056C46.7989 14.72 46.5829 14.288 46.5829 13.76C46.5829 12.776 47.4229 12.08 48.7909 12.08C50.2549 12.08 51.3349 12.8 52.0069 14.24L54.7909 12.632C53.6389 10.256 51.5029 8.864 48.7909 8.864C47.2789 8.864 45.9589 9.32 44.8789 10.232C43.7989 11.12 43.2709 12.344 43.2709 13.856C43.2709 15.392 43.8229 16.544 44.8549 17.312C45.9109 18.056 46.8229 18.416 48.3349 18.872C49.7029 19.256 50.6389 19.616 51.1669 19.952C51.6949 20.264 51.9589 20.72 51.9589 21.32C51.9589 22.352 51.1189 23.096 49.2709 23.096C47.3509 23.096 46.0549 22.232 45.4069 20.528L42.5749 22.184C43.5109 24.752 45.8389 26.336 49.1749 26.336ZM69.2792 21.272C69.3512 20.816 69.3992 20.408 69.3992 20C69.3992 18.2 68.8232 16.712 67.6712 15.488C66.5432 14.264 65.0792 13.664 63.3272 13.664C61.4792 13.664 59.9432 14.264 58.7672 15.488C57.5912 16.688 56.9912 18.2 56.9912 20C56.9912 21.824 57.5912 23.336 58.7912 24.536C59.9912 25.736 61.5752 26.336 63.5672 26.336C65.8712 26.336 67.6232 25.472 68.7992 23.768L66.3032 22.328C65.7032 23.12 64.7912 23.528 63.6152 23.528C61.7672 23.528 60.6392 22.784 60.2312 21.272H69.2792ZM60.1832 18.872C60.5432 17.336 61.6712 16.448 63.3272 16.448C64.7432 16.448 65.9432 17.24 66.3032 18.872H60.1832ZM83.1308 21.272C83.2028 20.816 83.2508 20.408 83.2508 20C83.2508 18.2 82.6748 16.712 81.5228 15.488C80.3948 14.264 78.9308 13.664 77.1788 13.664C75.3308 13.664 73.7948 14.264 72.6188 15.488C71.4428 16.688 70.8428 18.2 70.8428 20C70.8428 21.824 71.4428 23.336 72.6428 24.536C73.8428 25.736 75.4268 26.336 77.4188 26.336C79.7228 26.336 81.4748 25.472 82.6508 23.768L80.1548 22.328C79.5548 23.12 78.6428 23.528 77.4668 23.528C75.6188 23.528 74.4908 22.784 74.0828 21.272H83.1308ZM74.0348 18.872C74.3948 17.336 75.5228 16.448 77.1788 16.448C78.5948 16.448 79.7948 17.24 80.1548 18.872H74.0348ZM94.4143 15.416C93.5023 14.24 92.2063 13.664 90.5263 13.664C88.9183 13.664 87.5263 14.288 86.3743 15.512C85.2463 16.736 84.6703 18.224 84.6703 20C84.6703 21.776 85.2463 23.288 86.3743 24.512C87.5263 25.736 88.9183 26.336 90.5263 26.336C92.2063 26.336 93.5023 25.76 94.4143 24.584V26H97.5103V9.2H94.4143V15.416ZM88.7023 22.448C88.0783 21.8 87.7663 20.984 87.7663 20C87.7663 19.016 88.0783 18.2 88.7023 17.576C89.3503 16.928 90.1423 16.616 91.1023 16.616C92.0623 16.616 92.8543 16.928 93.4783 17.576C94.1023 18.2 94.4143 19.016 94.4143 20C94.4143 20.984 94.1023 21.8 93.4783 22.448C92.8543 23.072 92.0623 23.384 91.1023 23.384C90.1423 23.384 89.3503 23.072 88.7023 22.448ZM112.006 21.272C112.078 20.816 112.126 20.408 112.126 20C112.126 18.2 111.55 16.712 110.398 15.488C109.27 14.264 107.806 13.664 106.054 13.664C104.206 13.664 102.67 14.264 101.494 15.488C100.318 16.688 99.7178 18.2 99.7178 20C99.7178 21.824 100.318 23.336 101.518 24.536C102.718 25.736 104.302 26.336 106.294 26.336C108.598 26.336 110.35 25.472 111.526 23.768L109.03 22.328C108.43 23.12 107.518 23.528 106.342 23.528C104.494 23.528 103.366 22.784 102.958 21.272H112.006ZM102.91 18.872C103.27 17.336 104.398 16.448 106.054 16.448C107.47 16.448 108.67 17.24 109.03 18.872H102.91ZM117.383 14H114.287V26H117.383V20.264C117.383 19.112 117.743 18.296 118.487 17.792C119.231 17.288 120.095 17.096 121.031 17.216V13.76C119.399 13.76 117.959 14.528 117.383 16.064V14Z" fill="#E8E7F0"/>
</svg>
